{
  "source": "C:\\Users\\Peter\\Desktop\\stuff\\MIUN\\quantitative_research\\video_compression\\videos\\UVG\\ReadySteadyGo_1920x1080_120fps_420_8bit_YUV.y4m",
  "output": "C:\\Users\\Peter\\Desktop\\stuff\\MIUN\\quantitative_research\\video_compression\\compressed_videos\\UVG\\vp9\\1.5\\ReadySteadyGo_1920x1080_120fps_420_8bit_YUV_vp9.webm",
  "codec": "vp9",
  "ok": "[yuv4mpegpipe @ 000001de1f2053c0] Stream #0: not enough frames to estimate rate; consider increasing probesize\nInput #0, yuv4mpegpipe, from 'C:\\Users\\Peter\\Desktop\\stuff\\MIUN\\quantitative_research\\video_compression\\videos\\UVG\\ReadySteadyGo_1920x1080_120fps_420_8bit_YUV.y4m':\n  Duration: 00:00:05.00, start: 0.000000, bitrate: 2985989 kb/s\n  Stream #0:0: Video: rawvideo (I420 / 0x30323449), yuv420p(progressive), 1920x1080, 120 fps, 120 tbr, 120 tbn\n[out#0/webm @ 000001de1f209080] Codec AVOption b:a (set bitrate (in bits/s)) has not been used for any stream. The most likely reason is either wrong type (e.g. a video option with no video streams) or that it is a private option of some decoder which was not actually used for any stream.\nStream mapping:\n  Stream #0:0 -> #0:0 (rawvideo (native) -> vp9 (libvpx-vp9))\nPress [q] to stop, [?] for help\n[libvpx-vp9 @ 000001de1f20c140] v1.15.2-100-g40561f514\nOutput #0, webm, to 'C:\\Users\\Peter\\Desktop\\stuff\\MIUN\\quantitative_research\\video_compression\\compressed_videos\\UVG\\vp9\\1.5\\ReadySteadyGo_1920x1080_120fps_420_8bit_YUV_vp9.webm':\n  Metadata:\n    encoder         : Lavf62.3.100\n  Stream #0:0: Video: vp9, yuv420p(tv, progressive), 1920x1080, q=2-31, 1500 kb/s, 120 fps, 1k tbn\n    Metadata:\n      encoder         : Lavc62.11.100 libvpx-vp9\n    Side data:\n      cpb: bitrate max/min/avg: 0/0/0 buffer size: 1500000 vbv_delay: N/A\nframe=    0 fps=0.0 q=0.0 size=       0KiB time=N/A bitrate=N/A speed=N/A elapsed=0:00:00.51    \nframe=    7 fps=6.8 q=62.0 size=       0KiB time=00:00:00.05 bitrate=  66.0kbits/s speed=0.0563x elapsed=0:00:01.03    \nframe=   13 fps=8.3 q=62.0 size=       0KiB time=00:00:00.10 bitrate=  35.5kbits/s speed=0.0695x elapsed=0:00:01.55    \nframe=   18 fps=8.7 q=61.0 size=       0KiB time=00:00:00.15 bitrate=  25.7kbits/s speed=0.0724x elapsed=0:00:02.07    \nframe=   24 fps=9.2 q=63.0 size=       0KiB time=00:00:00.20 bitrate=  19.2kbits/s speed=0.0767x elapsed=0:00:02.60    \nframe=   30 fps=9.5 q=63.0 size=       0KiB time=00:00:00.25 bitrate=  15.4kbits/s speed=0.079x elapsed=0:00:03.16    \nframe=   35 fps=9.4 q=62.0 size=       0KiB time=00:00:00.29 bitrate=  13.2kbits/s speed=0.0787x elapsed=0:00:03.70    \nframe=   41 fps=9.7 q=61.0 size=       0KiB time=00:00:00.34 bitrate=  11.3kbits/s speed=0.0812x elapsed=0:00:04.20    \nframe=   47 fps=9.9 q=62.0 size=       0KiB time=00:00:00.38 bitrate=  10.0kbits/s speed=0.081x elapsed=0:00:04.73    \nframe=   52 fps=9.8 q=61.0 size=       0KiB time=00:00:00.43 bitrate=   8.9kbits/s speed=0.082x elapsed=0:00:05.28    \nframe=   58 fps= 10 q=61.0 size=       0KiB time=00:00:00.48 bitrate=   8.0kbits/s speed=0.0835x elapsed=0:00:05.79    \nframe=   64 fps= 10 q=61.0 size=       0KiB time=00:00:00.53 bitrate=   7.2kbits/s speed=0.0845x elapsed=0:00:06.30    \nframe=   70 fps= 10 q=61.0 size=       0KiB time=00:00:00.58 bitrate=   6.6kbits/s speed=0.0854x elapsed=0:00:06.83    \nframe=   76 fps= 10 q=62.0 size=       0KiB time=00:00:00.63 bitrate=   6.1kbits/s speed=0.0862x elapsed=0:00:07.34    \nframe=   82 fps= 10 q=63.0 size=       0KiB time=00:00:00.68 bitrate=   5.6kbits/s speed=0.0867x elapsed=0:00:07.87    \nframe=   88 fps= 10 q=53.0 size=       0KiB time=00:00:00.73 bitrate=   5.2kbits/s speed=0.0874x elapsed=0:00:08.39    \nframe=   94 fps= 11 q=63.0 size=       0KiB time=00:00:00.78 bitrate=   4.9kbits/s speed=0.0879x elapsed=0:00:08.91    \nframe=  101 fps= 11 q=63.0 size=       0KiB time=00:00:00.84 bitrate=   4.6kbits/s speed=0.0892x elapsed=0:00:09.43    \nframe=  108 fps= 11 q=63.0 size=       0KiB time=00:00:00.90 bitrate=   4.3kbits/s speed=0.0903x elapsed=0:00:09.97    \nframe=  114 fps= 11 q=63.0 size=       0KiB time=00:00:00.95 bitrate=   4.1kbits/s speed=0.0905x elapsed=0:00:10.50    \nframe=  120 fps= 11 q=63.0 size=       0KiB time=00:00:01.00 bitrate=   3.8kbits/s speed=0.0908x elapsed=0:00:11.01    \nframe=  127 fps= 11 q=63.0 size=       0KiB time=00:00:01.05 bitrate=   3.6kbits/s speed=0.0918x elapsed=0:00:11.52    \nframe=  133 fps= 11 q=63.0 size=     209KiB time=00:00:01.10 bitrate=1542.8kbits/s speed=0.0921x elapsed=0:00:12.03    \nframe=  140 fps= 11 q=63.0 size=     209KiB time=00:00:01.16 bitrate=1465.7kbits/s speed=0.0928x elapsed=0:00:12.56    \nframe=  146 fps= 11 q=63.0 size=     209KiB time=00:00:01.21 bitrate=1405.5kbits/s speed=0.0929x elapsed=0:00:13.09    \nframe=  152 fps= 11 q=62.0 size=     209KiB time=00:00:01.26 bitrate=1350.0kbits/s speed=0.0931x elapsed=0:00:13.60    \nframe=  159 fps= 11 q=63.0 size=     209KiB time=00:00:01.32 bitrate=1290.6kbits/s speed=0.0939x elapsed=0:00:14.11    \nframe=  165 fps= 11 q=53.0 size=     209KiB time=00:00:01.37 bitrate=1243.6kbits/s speed=0.094x elapsed=0:00:14.63    \nframe=  172 fps= 11 q=63.0 size=     209KiB time=00:00:01.43 bitrate=1193.0kbits/s speed=0.0946x elapsed=0:00:15.14    \nframe=  179 fps= 11 q=63.0 size=     209KiB time=00:00:01.49 bitrate=1146.4kbits/s speed=0.0952x elapsed=0:00:15.67    \nframe=  185 fps= 11 q=63.0 size=     209KiB time=00:00:01.54 bitrate=1109.2kbits/s speed=0.0952x elapsed=0:00:16.19    \nframe=  192 fps= 11 q=63.0 size=     209KiB time=00:00:01.60 bitrate=1068.7kbits/s speed=0.0956x elapsed=0:00:16.73    \nframe=  198 fps= 11 q=63.0 size=     209KiB time=00:00:01.65 bitrate=1036.4kbits/s speed=0.0957x elapsed=0:00:17.24    \nframe=  205 fps= 12 q=63.0 size=     209KiB time=00:00:01.70 bitrate=1001.0kbits/s speed=0.0961x elapsed=0:00:17.77    \nframe=  211 fps= 12 q=63.0 size=     209KiB time=00:00:01.75 bitrate= 972.5kbits/s speed=0.0961x elapsed=0:00:18.29    \nframe=  217 fps= 12 q=63.0 size=     209KiB time=00:00:01.80 bitrate= 945.6kbits/s speed=0.0961x elapsed=0:00:18.82    \nframe=  223 fps= 12 q=56.0 size=     209KiB time=00:00:01.85 bitrate= 920.2kbits/s speed=0.096x elapsed=0:00:19.34    \nframe=  229 fps= 12 q=63.0 size=     209KiB time=00:00:01.90 bitrate= 896.1kbits/s speed=0.0961x elapsed=0:00:19.85    \nframe=  236 fps= 12 q=63.0 size=     209KiB time=00:00:01.96 bitrate= 869.5kbits/s speed=0.0965x elapsed=0:00:20.37    \nframe=  242 fps= 12 q=63.0 size=     209KiB time=00:00:02.01 bitrate= 847.9kbits/s speed=0.0965x elapsed=0:00:20.89    \nframe=  248 fps= 12 q=63.0 size=     209KiB time=00:00:02.06 bitrate= 827.4kbits/s speed=0.0965x elapsed=0:00:21.42    \nframe=  254 fps= 12 q=63.0 size=     209KiB time=00:00:02.11 bitrate= 807.9kbits/s speed=0.0965x elapsed=0:00:21.93    \nframe=  260 fps= 12 q=63.0 size=     256KiB time=00:00:02.16 bitrate= 967.9kbits/s speed=0.0965x elapsed=0:00:22.44    \nframe=  266 fps= 12 q=63.0 size=     256KiB time=00:00:02.21 bitrate= 946.1kbits/s speed=0.0965x elapsed=0:00:22.96    \nframe=  272 fps= 12 q=63.0 size=     256KiB time=00:00:02.26 bitrate= 925.2kbits/s speed=0.0965x elapsed=0:00:23.48    \nframe=  278 fps= 12 q=63.0 size=     256KiB time=00:00:02.31 bitrate= 905.2kbits/s speed=0.0965x elapsed=0:00:24.01    \nframe=  284 fps= 12 q=63.0 size=     256KiB time=00:00:02.36 bitrate= 886.1kbits/s speed=0.0964x elapsed=0:00:24.54    \nframe=  290 fps= 12 q=63.0 size=     256KiB time=00:00:02.41 bitrate= 867.8kbits/s speed=0.0964x elapsed=0:00:25.05    \nframe=  296 fps= 12 q=63.0 size=     256KiB time=00:00:02.46 bitrate= 850.2kbits/s speed=0.0965x elapsed=0:00:25.57    \nframe=  302 fps= 12 q=63.0 size=     256KiB time=00:00:02.51 bitrate= 833.3kbits/s speed=0.0965x elapsed=0:00:26.09    \nframe=  308 fps= 12 q=63.0 size=     256KiB time=00:00:02.56 bitrate= 817.1kbits/s speed=0.0965x elapsed=0:00:26.60    \nframe=  314 fps= 12 q=63.0 size=     256KiB time=00:00:02.61 bitrate= 801.5kbits/s speed=0.0964x elapsed=0:00:27.13    \nframe=  320 fps= 12 q=63.0 size=     256KiB time=00:00:02.66 bitrate= 786.4kbits/s speed=0.0964x elapsed=0:00:27.66    \nframe=  326 fps= 12 q=63.0 size=     256KiB time=00:00:02.71 bitrate= 772.0kbits/s speed=0.0964x elapsed=0:00:28.18    \nframe=  331 fps= 12 q=56.0 size=     256KiB time=00:00:02.75 bitrate= 760.3kbits/s speed=0.0961x elapsed=0:00:28.70    \nframe=  337 fps= 12 q=63.0 size=     256KiB time=00:00:02.80 bitrate= 746.8kbits/s speed=0.0961x elapsed=0:00:29.22    \nframe=  343 fps= 12 q=63.0 size=     256KiB time=00:00:02.85 bitrate= 733.7kbits/s speed=0.0961x elapsed=0:00:29.74    \nframe=  349 fps= 12 q=63.0 size=     256KiB time=00:00:02.90 bitrate= 721.1kbits/s speed=0.0961x elapsed=0:00:30.25    \nframe=  355 fps= 12 q=63.0 size=     256KiB time=00:00:02.95 bitrate= 708.9kbits/s speed=0.0961x elapsed=0:00:30.77    \nframe=  360 fps= 12 q=63.0 size=     256KiB time=00:00:03.00 bitrate= 699.1kbits/s speed=0.0959x elapsed=0:00:31.29    \nframe=  365 fps= 11 q=63.0 size=     256KiB time=00:00:03.04 bitrate= 689.5kbits/s speed=0.0956x elapsed=0:00:31.80    \nframe=  371 fps= 11 q=63.0 size=     256KiB time=00:00:03.09 bitrate= 678.3kbits/s speed=0.0957x elapsed=0:00:32.31    \nframe=  377 fps= 11 q=63.0 size=     256KiB time=00:00:03.14 bitrate= 667.5kbits/s speed=0.0957x elapsed=0:00:32.84    \nframe=  382 fps= 11 q=63.0 size=     256KiB time=00:00:03.18 bitrate= 658.8kbits/s speed=0.0954x elapsed=0:00:33.36    \nframe=  387 fps= 11 q=63.0 size=     512KiB time=00:00:03.22 bitrate=1300.6kbits/s speed=0.0952x elapsed=0:00:33.89    \nframe=  393 fps= 11 q=63.0 size=     512KiB time=00:00:03.27 bitrate=1280.7kbits/s speed=0.0952x elapsed=0:00:34.40    \nframe=  398 fps= 11 q=63.0 size=     512KiB time=00:00:03.31 bitrate=1264.6kbits/s speed=0.095x elapsed=0:00:34.91    \nframe=  405 fps= 11 q=63.0 size=     512KiB time=00:00:03.37 bitrate=1242.8kbits/s speed=0.0952x elapsed=0:00:35.44    \nframe=  411 fps= 11 q=63.0 size=     512KiB time=00:00:03.42 bitrate=1224.6kbits/s speed=0.0952x elapsed=0:00:35.96    \nframe=  416 fps= 11 q=63.0 size=     512KiB time=00:00:03.46 bitrate=1209.9kbits/s speed=0.095x elapsed=0:00:36.47    \nframe=  421 fps= 11 q=63.0 size=     512KiB time=00:00:03.50 bitrate=1195.5kbits/s speed=0.0948x elapsed=0:00:36.99    \nframe=  426 fps= 11 q=63.0 size=     512KiB time=00:00:03.55 bitrate=1181.5kbits/s speed=0.0946x elapsed=0:00:37.51    \nframe=  433 fps= 11 q=63.0 size=     512KiB time=00:00:03.60 bitrate=1162.4kbits/s speed=0.0949x elapsed=0:00:38.02    \nframe=  438 fps= 11 q=63.0 size=     512KiB time=00:00:03.65 bitrate=1149.1kbits/s speed=0.0947x elapsed=0:00:38.55    \nframe=  444 fps= 11 q=63.0 size=     512KiB time=00:00:03.70 bitrate=1133.6kbits/s speed=0.0947x elapsed=0:00:39.06    \nframe=  449 fps= 11 q=63.0 size=     512KiB time=00:00:03.74 bitrate=1121.0kbits/s speed=0.0945x elapsed=0:00:39.57    \nframe=  454 fps= 11 q=63.0 size=     512KiB time=00:00:03.78 bitrate=1108.6kbits/s speed=0.0944x elapsed=0:00:40.09    \nframe=  460 fps= 11 q=63.0 size=     512KiB time=00:00:03.83 bitrate=1094.2kbits/s speed=0.0944x elapsed=0:00:40.61    \nframe=  465 fps= 11 q=63.0 size=     512KiB time=00:00:03.87 bitrate=1082.4kbits/s speed=0.0942x elapsed=0:00:41.13    \nframe=  470 fps= 11 q=63.0 size=     512KiB time=00:00:03.91 bitrate=1070.9kbits/s speed=0.094x elapsed=0:00:41.65    \nframe=  475 fps= 11 q=63.0 size=     512KiB time=00:00:03.95 bitrate=1059.6kbits/s speed=0.0939x elapsed=0:00:42.16    \nframe=  481 fps= 11 q=63.0 size=     512KiB time=00:00:04.00 bitrate=1046.4kbits/s speed=0.0939x elapsed=0:00:42.68    \nframe=  486 fps= 11 q=63.0 size=     512KiB time=00:00:04.05 bitrate=1035.6kbits/s speed=0.0938x elapsed=0:00:43.19    \nframe=  491 fps= 11 q=63.0 size=     512KiB time=00:00:04.09 bitrate=1025.1kbits/s speed=0.0936x elapsed=0:00:43.71    \nframe=  496 fps= 11 q=63.0 size=     512KiB time=00:00:04.13 bitrate=1014.8kbits/s speed=0.0935x elapsed=0:00:44.22    \nframe=  502 fps= 11 q=63.0 size=     512KiB time=00:00:04.18 bitrate=1002.6kbits/s speed=0.0935x elapsed=0:00:44.74    \nframe=  507 fps= 11 q=63.0 size=     512KiB time=00:00:04.22 bitrate= 992.7kbits/s speed=0.0933x elapsed=0:00:45.27    \nframe=  512 fps= 11 q=63.0 size=     512KiB time=00:00:04.26 bitrate= 983.0kbits/s speed=0.0932x elapsed=0:00:45.78    \nframe=  518 fps= 11 q=63.0 size=    1024KiB time=00:00:04.31 bitrate=1943.3kbits/s speed=0.0932x elapsed=0:00:46.30    \nframe=  523 fps= 11 q=63.0 size=    1024KiB time=00:00:04.35 bitrate=1924.7kbits/s speed=0.0931x elapsed=0:00:46.82    \nframe=  528 fps= 11 q=63.0 size=    1024KiB time=00:00:04.40 bitrate=1906.5kbits/s speed=0.0929x elapsed=0:00:47.34    \nframe=  533 fps= 11 q=63.0 size=    1024KiB time=00:00:04.44 bitrate=1888.6kbits/s speed=0.0928x elapsed=0:00:47.85    \nframe=  540 fps= 11 q=63.0 size=    1024KiB time=00:00:04.50 bitrate=1864.1kbits/s speed=0.093x elapsed=0:00:48.38    \nframe=  545 fps= 11 q=63.0 size=    1024KiB time=00:00:04.54 bitrate=1847.0kbits/s speed=0.0929x elapsed=0:00:48.90    \nframe=  550 fps= 11 q=63.0 size=    1024KiB time=00:00:04.58 bitrate=1830.2kbits/s speed=0.0928x elapsed=0:00:49.41    \nframe=  555 fps= 11 q=56.0 size=    1024KiB time=00:00:04.62 bitrate=1813.8kbits/s speed=0.0926x elapsed=0:00:49.93    \nframe=  561 fps= 11 q=63.0 size=    1024KiB time=00:00:04.67 bitrate=1794.4kbits/s speed=0.0927x elapsed=0:00:50.45    \nframe=  567 fps= 11 q=63.0 size=    1024KiB time=00:00:04.72 bitrate=1775.4kbits/s speed=0.0927x elapsed=0:00:50.98    \nframe=  571 fps= 11 q=62.0 size=    1024KiB time=00:00:04.75 bitrate=1762.9kbits/s speed=0.0924x elapsed=0:00:51.49    \nframe=  576 fps= 11 q=63.0 size=    1024KiB time=00:00:04.80 bitrate=1747.6kbits/s speed=0.0923x elapsed=0:00:52.01    \nframe=  576 fps= 11 q=63.0 size=    1024KiB time=00:00:04.80 bitrate=1747.6kbits/s speed=0.0914x elapsed=0:00:52.52    \nframe=  576 fps= 11 q=63.0 size=    1024KiB time=00:00:04.80 bitrate=1747.6kbits/s speed=0.0905x elapsed=0:00:53.05    \nframe=  576 fps= 11 q=63.0 size=    1024KiB time=00:00:04.80 bitrate=1747.6kbits/s speed=0.0896x elapsed=0:00:53.58    \n[out#0/webm @ 000001de1f209080] video:1208KiB audio:0KiB subtitle:0KiB other streams:0KiB global headers:0KiB muxing overhead: 0.390969%\nframe=  600 fps= 11 q=62.0 Lsize=    1212KiB time=00:00:05.00 bitrate=1986.4kbits/s speed=0.0926x elapsed=0:00:54.01    \n",
  "seconds": 54.6477108001709,
  "probe_out": {}
}